# xmcd
#
# Track frame offsets:
#	150
#	8555
#	24483
#	35998
#	54749
#	70376
#	80075
#	97445
#	110291
#	136112
#	154691
#
# Disc length: 2593 seconds
#
# Revision: 0
# Processed by: cddbd v1.5.2PL0 Copyright (c) Steve Scherf et al.
# Submitted via: EasyCDDAExtractor 11.0.2.1
#
DISCID=940a1f0b
DTITLE=Twelve Tribes - Midwest Pandemic
DYEAR=2006
DGENRE=
TTITLE0=National Amnesia
TTITLE1=Muzzle Order
TTITLE2=Televangelist
TTITLE3=Pagan Self Portrait
TTITLE4=History Versus the Pavement
TTITLE5=Monarch of Dreams
TTITLE6=Librium
TTITLE7=Verona
TTITLE8=The Nine Year Tide
TTITLE9=Midwest Pandemic
TTITLE10=The Recovery in Three Parts
EXTD=
EXTT0=
EXTT1=
EXTT2=
EXTT3=
EXTT4=
EXTT5=
EXTT6=
EXTT7=
EXTT8=
EXTT9=
EXTT10=
PLAYORDER=
